<svg width="30" height="30" viewBox="0 0 30 30" fill="none" xmlns="http://www.w3.org/2000/svg">
<path d="M22.5 11.25C22.4875 11.25 22.4788 11.2525 22.4688 11.2538C22.3168 9.1534 21.3548 7.19424 19.7857 5.7897C18.2167 4.38516 16.1634 3.64511 14.0591 3.72571C11.9548 3.80632 9.96414 4.70127 8.50716 6.22172C7.05018 7.74217 6.24086 9.76918 6.25 11.875C6.25 12.53 6.3375 13.1625 6.4825 13.775C6.40375 13.7688 6.33 13.75 6.25 13.75C3.4875 13.75 1.25 15.9875 1.25 18.75C1.25 20.2525 1.925 21.5837 2.975 22.5H26.2162C27.0003 21.9229 27.638 21.1699 28.078 20.3015C28.5181 19.4331 28.7482 18.4735 28.75 17.5C28.75 14.05 25.95 11.25 22.5 11.25ZM15 20L10 13.75H13.75V10H16.25V13.75H20L15 20Z" fill="white"/>
</svg>
