<svg width="30" height="24" viewBox="0 0 30 24" fill="none" xmlns="http://www.w3.org/2000/svg">
<path d="M30 3.82125V21.2075C30 22.3375 29.085 23.2525 27.955 23.2525H23.1812V11.6625L15 17.8L6.81875 11.6625V23.2537H2.045C1.77634 23.2537 1.51032 23.2008 1.26212 23.098C1.01393 22.9951 0.788437 22.8444 0.598525 22.6543C0.408613 22.4643 0.258005 22.2387 0.155308 21.9905C0.0526105 21.7422 -0.000163835 21.4762 3.82064e-07 21.2075V3.82125C3.82064e-07 1.2925 2.88625 -0.151253 4.90875 1.36625L6.81875 2.8L15 8.935L23.1812 2.7975L25.0912 1.36625C27.1125 -0.150003 30 1.2925 30 3.82125Z" fill="#06A763"/>
</svg>
