<svg width="30" height="30" viewBox="0 0 30 30" fill="none" xmlns="http://www.w3.org/2000/svg">
<path d="M13.75 10H16.25V11.25H13.75V10Z" fill="#06A763"/>
<path d="M13.75 5H16.25V6.25H13.75V5Z" fill="#06A763"/>
<path d="M13.75 12.5H16.25V13.75H13.75V12.5Z" fill="#06A763"/>
<path d="M26.25 15V11.25C22.4393 11.2492 18.7471 12.5751 15.8075 15H14.1925C11.2529 12.5751 7.56073 11.2492 3.75 11.25V15C3.41848 15 3.10054 15.1317 2.86612 15.3661C2.6317 15.6005 2.5 15.9185 2.5 16.25V18.75C2.5 19.0815 2.6317 19.3995 2.86612 19.6339C3.10054 19.8683 3.41848 20 3.75 20V25C7.92758 24.9962 11.95 26.5828 15 29.4375C18.0532 26.5878 22.0735 25.0021 26.25 25V20C26.5815 20 26.8995 19.8683 27.1339 19.6339C27.3683 19.3995 27.5 19.0815 27.5 18.75V16.25C27.5 15.9185 27.3683 15.6005 27.1339 15.3661C26.8995 15.1317 26.5815 15 26.25 15Z" fill="#06A763"/>
<path d="M11.25 6.25C11.9404 6.25 12.5 5.69036 12.5 5C12.5 4.30964 11.9404 3.75 11.25 3.75C10.5596 3.75 10 4.30964 10 5C10 5.69036 10.5596 6.25 11.25 6.25Z" fill="#06A763"/>
<path d="M18.75 6.25C19.4404 6.25 20 5.69036 20 5C20 4.30964 19.4404 3.75 18.75 3.75C18.0596 3.75 17.5 4.30964 17.5 5C17.5 5.69036 18.0596 6.25 18.75 6.25Z" fill="#06A763"/>
<path d="M20 10H10C9.00574 9.99901 8.05249 9.6036 7.34945 8.90055C6.6464 8.19751 6.25099 7.24426 6.25 6.25V3.75C6.25099 2.75574 6.6464 1.80249 7.34945 1.09945C8.05249 0.3964 9.00574 0.000992769 10 0L20 0C20.9943 0.000992769 21.9475 0.3964 22.6506 1.09945C23.3536 1.80249 23.749 2.75574 23.75 3.75V6.25C23.749 7.24426 23.3536 8.19751 22.6506 8.90055C21.9475 9.6036 20.9943 9.99901 20 10ZM10 2.5C9.66858 2.50033 9.35083 2.63213 9.11648 2.86648C8.88213 3.10083 8.75033 3.41858 8.75 3.75V6.25C8.75033 6.58142 8.88213 6.89917 9.11648 7.13352C9.35083 7.36787 9.66858 7.49967 10 7.5H20C20.3314 7.49967 20.6492 7.36787 20.8835 7.13352C21.1179 6.89917 21.2497 6.58142 21.25 6.25V3.75C21.2497 3.41858 21.1179 3.10083 20.8835 2.86648C20.6492 2.63213 20.3314 2.50033 20 2.5H10Z" fill="#06A763"/>
</svg>
