<svg width="30" height="30" viewBox="0 0 30 30" fill="none" xmlns="http://www.w3.org/2000/svg">
<g clip-path="url(#clip0)">
<path d="M25.5604 25.5612H21.1154V18.5999C21.1154 16.9399 21.0857 14.803 18.8035 14.803C16.4884 14.803 16.1341 16.6117 16.1341 18.4791V25.5607H11.6892V11.2456H15.9563V13.2019H16.0161C16.4431 12.4717 17.0602 11.871 17.8017 11.4638C18.5431 11.0566 19.3811 10.8581 20.2264 10.8894C24.7317 10.8894 25.5623 13.8529 25.5623 17.7081L25.5604 25.5612ZM6.67355 9.28889C5.24891 9.28913 4.09379 8.13436 4.09355 6.70971C4.09332 5.28507 5.24797 4.12995 6.67262 4.12971C8.09727 4.12936 9.25238 5.28413 9.25262 6.70878C9.25274 7.39292 8.98109 8.0491 8.49743 8.53296C8.01376 9.01682 7.3577 9.28874 6.67355 9.28889ZM8.89613 25.5613H4.44641V11.2456H8.89602V25.5612L8.89613 25.5613ZM27.7764 0.00155019H2.21281C1.00461 -0.0120436 0.0137891 0.955808 -0.000976562 2.16401V27.8343C0.0133203 29.0431 1.00402 30.0119 2.2127 29.9992H27.7764C28.9877 30.0142 29.9823 29.0454 29.999 27.8343V2.16202C29.9818 0.951472 28.9871 -0.0162623 27.7764 -0.000442002" fill="#06A763"/>
</g>
<defs>
<clipPath id="clip0">
<rect width="30" height="30" fill="white"/>
</clipPath>
</defs>
</svg>
