<svg width="30" height="30" viewBox="0 0 30 30" fill="none" xmlns="http://www.w3.org/2000/svg">
<path d="M15.9375 28.125C13.5156 28.125 11.2402 27.5391 9.11133 26.3672L0 30L3.63281 20.8887C2.46094 18.7598 1.875 16.4844 1.875 14.0625C1.875 12.1484 2.24609 10.3271 2.98828 8.59863C3.73047 6.87012 4.73145 5.37598 5.99121 4.11621C7.25098 2.85645 8.74512 1.85547 10.4736 1.11328C12.2021 0.371094 14.0234 0 15.9375 0C17.8516 0 19.6729 0.371094 21.4014 1.11328C23.1299 1.85547 24.624 2.85645 25.8838 4.11621C27.1436 5.37598 28.1445 6.87012 28.8867 8.59863C29.6289 10.3271 30 12.1484 30 14.0625C30 15.9766 29.6289 17.7979 28.8867 19.5264C28.1445 21.2549 27.1436 22.749 25.8838 24.0088C24.624 25.2686 23.1299 26.2695 21.4014 27.0117C19.6729 27.7539 17.8516 28.125 15.9375 28.125ZM20.625 16.875H18.75L17.6953 17.8125C16.8164 17.5781 15.7373 16.8213 14.458 15.542C13.1787 14.2627 12.4219 13.1836 12.1875 12.3047L13.125 11.25V9.375C13.125 9.04297 13.0078 8.71094 12.7734 8.37891C12.5391 8.04688 12.2803 7.80762 11.9971 7.66113C11.7139 7.51465 11.5137 7.5 11.3965 7.61719L10.0195 8.99414C9.25781 9.75586 9.14551 10.9424 9.68262 12.5537C10.2197 14.165 11.2451 15.7275 12.7588 17.2412C14.2725 18.7549 15.835 19.7803 17.4463 20.3174C19.0576 20.8545 20.2441 20.7422 21.0059 19.9805L22.3828 18.6035C22.5 18.4863 22.4854 18.2861 22.3389 18.0029C22.1924 17.7197 21.9531 17.4609 21.6211 17.2266C21.2891 16.9922 20.957 16.875 20.625 16.875Z" fill="#06A763"/>
</svg>
