<svg width="30" height="31" viewBox="0 0 30 31" fill="none" xmlns="http://www.w3.org/2000/svg">
<path d="M15.0001 0C6.71684 0 0 7.04067 0 15.726C0 22.4093 3.9765 28.1181 9.58372 30.3942C10.0282 30.5746 10.5523 30.8175 10.955 30.5569C11.1872 30.4066 11.2829 30.1368 11.2829 29.8919C11.2829 28.3898 9.80787 27.405 8.3635 26.9924C6.95089 26.5888 6.40447 25.5748 6.25498 25.2275C6.22138 25.1494 6.19411 25.0681 6.16286 24.989C5.84988 24.1972 5.48171 23.6721 5.17557 23.3359C4.80469 22.9286 4.1366 22.746 3.97564 22.2192C3.90924 22.0019 4.14026 21.913 4.34896 21.8766C4.54494 21.8425 4.74676 21.8528 4.9417 21.8924C6.04093 22.116 6.70312 23.0708 6.89031 23.3772C6.92862 23.4399 6.96365 23.5059 7.00082 23.5693C8.15026 25.5294 9.87362 25.3101 10.8748 24.9578C11.152 24.8602 11.3472 24.4919 11.4203 24.2072C11.6038 23.4919 11.1267 22.5248 10.4136 22.3331C7.75167 21.6173 5.42871 19.8121 5.42871 14.9047C5.42871 14.114 5.55297 13.39 5.78076 12.7313C6.2597 11.3463 6.69729 10.4589 6.67198 8.99373C6.65157 7.8125 7.83729 6.38917 8.93543 6.82483C9.04575 6.8686 9.16137 6.91774 9.28236 6.97287C10.5945 7.57073 12.0492 7.85155 13.4823 7.69212C13.9856 7.63614 14.4935 7.6071 15.0001 7.60471C15.5077 7.60711 16.0169 7.63624 16.5215 7.69243C17.9543 7.85199 19.4085 7.57029 20.7203 6.97223C20.8408 6.91728 20.956 6.86828 21.0659 6.82463C22.1623 6.3893 23.3472 7.81079 23.3279 8.99026C23.3039 10.4572 23.7426 11.347 24.2201 12.7343C24.4465 13.3922 24.5695 14.1153 24.5695 14.9047C24.5695 19.0577 22.9107 20.9839 20.7884 21.9088C19.6543 22.4029 18.7377 24.3394 18.7377 25.5764C18.7377 27.6804 18.7204 29.3739 18.7204 29.8919C18.7204 30.3105 18.9904 30.8008 19.7507 30.6463C25.7074 28.5647 30 22.672 30 15.7262C30 7.04067 23.2841 0 15.0001 0ZM5.61809 22.4021C5.58504 22.4802 5.46773 22.5037 5.36098 22.45C5.25211 22.3988 5.19105 22.2922 5.22621 22.2138C5.25855 22.1334 5.37609 22.1109 5.48461 22.1648C5.59359 22.2162 5.6557 22.3237 5.61809 22.4021ZM6.3559 23.0923C6.28441 23.1618 6.14449 23.1295 6.04957 23.0197C5.95148 22.9101 5.93309 22.7634 6.00563 22.6929C6.07945 22.6233 6.21504 22.6559 6.31336 22.7655C6.41156 22.8764 6.43055 23.022 6.3559 23.0923ZM6.86215 23.9754C6.77016 24.0424 6.61992 23.9796 6.52699 23.8398C6.43512 23.6999 6.43512 23.5322 6.52898 23.465C6.62215 23.3978 6.77016 23.4583 6.86426 23.5971C6.9559 23.7393 6.95602 23.9068 6.86215 23.9754ZM7.71809 24.9982C7.63594 25.0933 7.46074 25.0677 7.33254 24.938C7.20141 24.8112 7.16496 24.6313 7.24746 24.5362C7.33066 24.4409 7.5068 24.4677 7.63594 24.5964C7.76602 24.723 7.80586 24.9042 7.71809 24.9982ZM8.82457 25.3434C8.78824 25.4667 8.61949 25.5227 8.44969 25.4703C8.28 25.4164 8.16902 25.2722 8.20324 25.1477C8.23851 25.0236 8.40797 24.9654 8.57906 25.0214C8.74851 25.075 8.85984 25.2181 8.82457 25.3434ZM10.0836 25.49C10.0879 25.6196 9.94383 25.7271 9.76547 25.7296C9.58617 25.7337 9.44098 25.6288 9.43898 25.5011C9.43898 25.3702 9.57984 25.2637 9.75926 25.2605C9.93762 25.2568 10.0836 25.361 10.0836 25.49ZM11.3205 25.4402C11.3419 25.5668 11.218 25.6968 11.0408 25.7314C10.8668 25.7647 10.7055 25.6866 10.6834 25.5611C10.6618 25.4314 10.788 25.3014 10.9618 25.2679C11.1393 25.2356 11.2979 25.3116 11.3205 25.4402Z" fill="#06A763"/>
</svg>
